PathFileType	4	(X/Y/Z)	C:/Users/opensim2020/Desktop/walking_exp_matlab/subject06_walking22_straight_03.trc																																																																																																																																		
DataRate	CameraRate	NumFrames	NumMarkers	Units	OrigDataRate	OrigDataStartFrame	OrigNumFrames																																																																																																																														
100	100	4	44	mm	100	1741	77																																																																																																																														
Frame#	Time	LFHD			RFHD			LBHD			RBHD			C7			T10			CLAV			STRN			RBAK			LSHO			LUPA			LELB			LFRM			LWRA			LWRB			LFIN			RSHO			RUPA			RELB			RFRM			RWRA			RWRB			RFIN			LASI			RASI			LPSI			RPSI			LTHI			LKNE			LTIB			LANK			LHEE			LTOE			RTHI			RKNE			RTIB			RANK			RHEE			RTOE			*39			*40			*41			*42			*43		
		X1	Y1	Z1	X2	Y2	Z2	X3	Y3	Z3	X4	Y4	Z4	X5	Y5	Z5	X6	Y6	Z6	X7	Y7	Z7	X8	Y8	Z8	X9	Y9	Z9	X10	Y10	Z10	X11	Y11	Z11	X12	Y12	Z12	X13	Y13	Z13	X14	Y14	Z14	X15	Y15	Z15	X16	Y16	Z16	X17	Y17	Z17	X18	Y18	Z18	X19	Y19	Z19	X20	Y20	Z20	X21	Y21	Z21	X22	Y22	Z22	X23	Y23	Z23	X24	Y24	Z24	X25	Y25	Z25	X26	Y26	Z26	X27	Y27	Z27	X28	Y28	Z28	X29	Y29	Z29	X30	Y30	Z30	X31	Y31	Z31	X32	Y32	Z32	X33	Y33	Z33	X34	Y34	Z34	X35	Y35	Z35	X36	Y36	Z36	X37	Y37	Z37	X38	Y38	Z38	X39	Y39	Z39	X40	Y40	Z40	X41	Y41	Z41	X42	Y42	Z42	X43	Y43	Z43	X44	Y44	Z44
																																																																																																																																					
58	0.57	310.41708	1612.31201	1369.72986	316.83542	1607.34497	1502.33154	173.56622	1568.58557	1379.69348	181.43924	1568.50647	1509.20935	165.33116	1413.14001	1430.54297	111.53857	1085.41528	1437.24414	268.64722	1327.07874	1439.53613	298.88385	1151.7865	1427.55322	73.51422	1248.03638	1495.46484	230.54347	1366.12988	1274.5957	255.78473	1171.63989	1190.81641	277.80539	1062.85522	1170.33252	391.04669	968.25964	1165.59082	504.08289	938.12347	1230.47754	476.23489	888.36884	1189.4043	563.27173	871.21667	1201.00085	211.21513	1363.03149	1596.42175	95.54424	1199.93311	1674.28345	54.23462	1086.21924	1696.97461	7.68976	977.20044	1724.72778	-8.88592	822.78113	1716.36584	-59.97844	856.65411	1742.77124	-69.09594	772.15143	1753.80432	279.21384	917.41333	1321.47693	299.73804	929.88861	1544.35486	125.46617	950.88214	1366.2395	147.10858	952.74011	1533.50159	145.75975	617.25098	1281.07434	96.12079	459.371	1307.92114	-54.70633	247.65137	1325.0907	-145.28319	101.93991	1371.7981	-190.11774	104.30207	1416.5376	-18.63116	39.47689	1374.25806	326.20346	612.36975	1626.37964	386.30679	502.5567	1598.70728	462.40744	257.82059	1600.86267	546.61829	89.2115	1565.08557	529.15613	52.30317	1515.29724	697.32745	119.21996	1583.83679	216.51262	1660.83325	1432.5415	NaN	NaN	NaN	NaN	NaN	NaN	NaN	NaN	NaN	NaN	NaN	NaN
59	0.58	326.67191	1611.05518	1370.80774	333.18948	1606.16614	1503.36987	189.82979	1567.23547	1381.01038	197.82915	1567.31445	1510.5033	181.85062	1411.69739	1431.73755	128.94727	1083.776	1436.98242	285.34079	1325.86292	1440.94373	316.22256	1150.72314	1428.8269	90.42184	1246.50793	1496.40869	247.78574	1364.69543	1275.88245	273.79639	1170.21606	1192.19543	295.96585	1061.58936	1171.57642	410.31802	968.79462	1167.21521	523.82391	940.93384	1231.9845	496.72253	890.31439	1191.39136	584.27551	875.14081	1202.64661	227.97319	1361.53735	1597.87488	111.93061	1198.56653	1675.37842	70.50627	1084.99817	1698.40991	23.40818	976.30084	1726.41919	5.43891	821.67914	1718.13745	-45.18077	856.31653	1744.73352	-55.2973	771.83667	1755.69092	296.73608	916.05042	1321.84717	317.88004	929.48175	1544.6355	143.36166	949.42383	1366.30408	165.14447	952.04218	1533.37439	161.01439	615.96417	1281.60449	110.14806	458.55103	1308.33752	-46.46683	250.89871	1325.23254	-141.54762	108.12757	1371.55688	-186.05429	112.1453	1416.16895	-17.87724	39.95214	1374.46887	347.7933	613.54498	1626.36804	407.80276	504.56427	1598.17761	481.1915	257.66336	1601.16162	562.2597	87.5874	1564.6626	542.81555	50.69922	1515.60327	713.58997	115.6679	1579.93054	232.77393	1659.59155	1433.70959	NaN	NaN	NaN	NaN	NaN	NaN	NaN	NaN	NaN	NaN	NaN	NaN
60	0.59	343.06482	1610.18835	1371.93738	349.63223	1605.32397	1504.43555	206.20778	1566.32007	1382.29199	214.35139	1566.52185	1511.81299	198.55838	1410.51416	1432.99988	146.9955	1082.37109	1436.76672	302.2355	1324.95593	1442.40393	334.03998	1150.12805	1430.3114	107.81908	1245.09363	1497.34509	265.28235	1363.63757	1277.30273	291.67377	1169.19641	1193.6803	313.92175	1060.63245	1172.98401	429.20761	969.09625	1168.70544	542.82318	943.08289	1233.41724	516.39917	891.67175	1193.52234	604.46844	878.32202	1204.10046	244.75455	1360.38196	1599.36938	128.61555	1197.44434	1676.68567	87.26123	1083.82056	1700.00952	40.00249	975.39453	1728.39185	22.34093	821.92377	1721.5481	-29.22456	855.77661	1746.87622	-40.04564	771.32629	1757.75745	314.59109	914.9118	1322.38354	336.4198	929.29974	1544.98352	161.4897	948.48108	1366.30481	183.54765	951.57983	1533.06848	176.9543	614.66028	1282.40344	125.44286	457.51123	1308.89697	-36.92332	254.36311	1325.49548	-136.81334	114.87294	1371.41736	-181.09563	120.6927	1415.99292	-16.56608	40.46666	1374.68799	369.89813	615.55023	1626.22961	429.98663	507.16888	1597.38855	499.04526	257.26282	1601.38916	574.76251	84.91363	1564.28271	553.50415	47.99439	1516.32458	726.43805	110.10566	1575.8468	249.1467	1658.71313	1434.93604	NaN	NaN	NaN	NaN	NaN	NaN	NaN	NaN	NaN	NaN	NaN	NaN
61	0.6	359.46729	1609.59558	1373.21667	366.03503	1604.81458	1505.55408	222.59457	1565.73621	1383.67664	230.77266	1565.98682	1513.17578	215.42802	1409.54443	1434.28491	165.19965	1081.28772	1436.70825	319.34167	1324.42554	1444.02576	352.25473	1149.88245	1431.85388	125.53477	1243.61218	1498.20264	282.82059	1362.87695	1278.77771	309.54761	1168.50854	1195.32544	331.74747	1060.05811	1174.58655	447.52493	969.27045	1170.271	561.28241	944.58368	1234.8363	535.3031	892.65375	1195.15833	623.51733	880.53864	1205.52319	261.57764	1359.54382	1600.76196	145.67152	1196.55823	1678.1676	104.52698	1082.81995	1701.73596	57.25564	974.44885	1730.37341	37.99234	819.5141	1722.31409	-12.14958	855.03046	1749.15564	-23.29147	770.55902	1760.05811	332.85168	914.08246	1323.24805	355.15979	929.41034	1545.45544	180.07437	947.87225	1366.32959	202.25929	951.35657	1532.83337	193.5041	613.26459	1283.3208	141.92525	456.24997	1309.68567	-26.35522	258.10724	1326.05127	-130.97479	122.20287	1371.55457	-174.73486	129.99538	1416.16235	-15.02446	40.9043	1374.875	392.12158	617.97577	1625.78601	451.96738	509.66489	1596.37671	515.4303	256.38586	1601.5011	584.57538	81.40926	1563.89221	561.73309	44.26777	1516.59497	736.80737	103.56406	1572.31213	265.5979	1658.08179	1436.20325	NaN	NaN	NaN	NaN	NaN	NaN	NaN	NaN	NaN	NaN	NaN	NaN
